<svg width="14" height="14" viewBox="0 0 14 14" fill="none" xmlns="http://www.w3.org/2000/svg">
<path d="M11.0423 10.2083C11.4394 9.52194 11.6667 8.72499 11.6667 7.87501V6.12501C11.6667 4.52102 10.8575 3.10604 9.625 2.26605" stroke="white" stroke-width="0.5" stroke-linecap="round" stroke-linejoin="round"/>
<path d="M2.3335 6.70834V6.12501C2.3335 3.54768 4.42283 1.45834 7.00016 1.45834C7.29924 1.45834 7.59172 1.48648 7.87516 1.54024" stroke="white" stroke-width="0.5" stroke-linecap="round" stroke-linejoin="round"/>
<path d="M2.36963 8.45834C2.65669 10.7604 4.62041 12.5417 7.00019 12.5417C7.97354 12.5417 8.8773 12.2437 9.62519 11.7339" stroke="white" stroke-width="0.5" stroke-linecap="round" stroke-linejoin="round"/>
<path d="M9.47545 8.45832C9.57222 8.18462 9.62484 7.89016 9.62484 7.58332V6.41666C9.62484 4.96691 8.4496 3.79166 6.99984 3.79166C6.4602 3.79166 5.95859 3.95449 5.5415 4.23369" stroke="white" stroke-width="0.5" stroke-linecap="round" stroke-linejoin="round"/>
<path d="M4.44005 5.83334C4.39748 6.02094 4.375 6.21619 4.375 6.41668V7.58334C4.375 9.0331 5.55025 10.2083 7 10.2083C7.41907 10.2083 7.81521 10.1101 8.16667 9.93546" stroke="white" stroke-width="0.5" stroke-linecap="round" stroke-linejoin="round"/>
<path d="M7 6.125V7.875" stroke="white" stroke-width="0.5" stroke-linecap="round" stroke-linejoin="round"/>
</svg>
