<svg viewBox="0 0 12 12" fill="none" xmlns="http://www.w3.org/2000/svg">
<path d="M1.1863 2.5741C0.778375 2.64602 0.506 3.03502 0.577925 3.44294L0.784525 4.61462L5.659 3.75512C6.31685 3.27998 7.12495 2.99999 7.99845 2.99999C8.0377 2.99999 8.07685 3.00055 8.1158 3.00168L7.964 2.14058C7.89205 1.73266 7.50305 1.46028 7.09515 1.53221L1.1863 2.5741Z" fill="currentColor"/>
<path d="M4.97224 4.38388C4.36536 5.08525 3.99821 5.99975 3.99821 7C3.99821 7.76315 4.21194 8.4764 4.5828 9.08315L2.40158 9.46775C1.99365 9.5397 1.60466 9.2673 1.53273 8.8594L0.871094 5.10705L4.97224 4.38388Z" fill="currentColor"/>
<path fill-rule="evenodd" clip-rule="evenodd" d="M4.49805 7.00001C4.49805 5.06701 6.06503 3.5 7.99803 3.5C9.93103 3.5 11.498 5.06701 11.498 7.00001C11.498 8.93301 9.93103 10.5 7.99803 10.5C6.06503 10.5 4.49805 8.93301 4.49805 7.00001ZM7.99803 5.58001C8.13613 5.58001 8.24803 5.69191 8.24803 5.83001V6.89646L9.21483 7.86321C9.31248 7.96086 9.31248 8.11916 9.21483 8.21676C9.11718 8.31441 8.95893 8.31441 8.86128 8.21676L7.82128 7.17676C7.77438 7.12991 7.74803 7.06631 7.74803 7.00001V5.83001C7.74803 5.69191 7.85998 5.58001 7.99803 5.58001Z" fill="currentColor"/>
</svg>
