<svg viewBox="0 0 12 12" fill="none" xmlns="http://www.w3.org/2000/svg">
<path d="M5.63187 1.13874C5.86017 1.01031 6.13897 1.01031 6.36727 1.13874L10.1173 3.24811C10.1597 3.272 10.1993 3.29967 10.2356 3.33058L5.99987 5.71325L1.76367 3.33045C1.79995 3.2996 1.83946 3.27197 1.88187 3.24811L5.63187 1.13874Z" fill="black"/>
<path d="M5.63187 1.13874C5.86017 1.01031 6.13897 1.01031 6.36727 1.13874L10.1173 3.24811C10.1597 3.272 10.1993 3.29967 10.2356 3.33058L5.99987 5.71325L1.76367 3.33045C1.79995 3.2996 1.83946 3.27197 1.88187 3.24811L5.63187 1.13874Z" fill="url(#paint0_linear_701_6303)"/>
<path d="M1.51296 3.76285C1.50442 3.80819 1.5 3.85467 1.5 3.90179V8.09819C1.5 8.36914 1.64615 8.61904 1.88231 8.75189L5.6323 10.8612C5.6704 10.8826 5.70985 10.9005 5.7503 10.9148V6.14629L1.51296 3.76285Z" fill="black"/>
<path d="M1.51296 3.76285C1.50442 3.80819 1.5 3.85467 1.5 3.90179V8.09819C1.5 8.36914 1.64615 8.61904 1.88231 8.75189L5.6323 10.8612C5.6704 10.8826 5.70985 10.9005 5.7503 10.9148V6.14629L1.51296 3.76285Z" fill="url(#paint1_linear_701_6303)"/>
<path d="M6.25 10.9146C6.2902 10.9004 6.3295 10.8826 6.3674 10.8613L10.1174 8.75191C10.3535 8.61906 10.4997 8.36916 10.4997 8.09821V3.90181C10.4997 3.85476 10.4953 3.80834 10.4868 3.76306L6.25 6.14631V10.9146Z" fill="black"/>
<path d="M6.25 10.9146C6.2902 10.9004 6.3295 10.8826 6.3674 10.8613L10.1174 8.75191C10.3535 8.61906 10.4997 8.36916 10.4997 8.09821V3.90181C10.4997 3.85476 10.4953 3.80834 10.4868 3.76306L6.25 6.14631V10.9146Z" fill="url(#paint2_linear_701_6303)"/>
<defs>
<linearGradient id="paint0_linear_701_6303" x1="5.99964" y1="1.04242" x2="5.99964" y2="5.71325" gradientUnits="userSpaceOnUse">
<stop stop-color="#1E88E5"/>
<stop offset="1" stop-color="#1976D2"/>
</linearGradient>
<linearGradient id="paint1_linear_701_6303" x1="3.62515" y1="3.76285" x2="3.62515" y2="10.9148" gradientUnits="userSpaceOnUse">
<stop stop-color="#1E88E5"/>
<stop offset="1" stop-color="#1976D2"/>
</linearGradient>
<linearGradient id="paint2_linear_701_6303" x1="8.37485" y1="3.76306" x2="8.37485" y2="10.9146" gradientUnits="userSpaceOnUse">
<stop stop-color="#1E88E5"/>
<stop offset="1" stop-color="#1976D2"/>
</linearGradient>
</defs>
</svg>
