<svg viewBox="0 0 12 12" fill="none" xmlns="http://www.w3.org/2000/svg">
<path fill-rule="evenodd" clip-rule="evenodd" d="M6 1C3.23857 1 1 3.23857 1 6C1 8.7614 3.23857 11 6 11C8.7614 11 11 8.7614 11 6C11 3.23857 8.7614 1 6 1ZM8.10355 3.89645C8.2988 4.09171 8.2988 4.40829 8.10355 4.60356L4.60356 8.10355C4.40829 8.2988 4.09171 8.2988 3.89645 8.10355C3.70119 7.9083 3.70119 7.5917 3.89645 7.39645L7.39645 3.89645C7.5917 3.70119 7.9083 3.70119 8.10355 3.89645ZM5.125 4.5C5.125 4.84518 4.84518 5.125 4.5 5.125C4.15482 5.125 3.875 4.84518 3.875 4.5C3.875 4.15482 4.15482 3.875 4.5 3.875C4.84518 3.875 5.125 4.15482 5.125 4.5ZM8.125 7.5C8.125 7.8452 7.8452 8.125 7.5 8.125C7.1548 8.125 6.875 7.8452 6.875 7.5C6.875 7.1548 7.1548 6.875 7.5 6.875C7.8452 6.875 8.125 7.1548 8.125 7.5Z" fill="currentColor"/>
</svg>
