<svg width="18" height="18" viewBox="0 0 18 18" fill="none" xmlns="http://www.w3.org/2000/svg">
<path d="M6.25 6.25V3.5C6.25 1.98122 5.01878 0.75 3.5 0.75C1.98122 0.75 0.75 1.98122 0.75 3.5C0.75 5.01878 1.98122 6.25 3.5 6.25H6.25ZM6.25 6.25H11.75M6.25 6.25V11.75M11.75 6.25V3.5C11.75 1.98122 12.9812 0.75 14.5 0.75C16.0188 0.75 17.25 1.98122 17.25 3.5C17.25 5.01878 16.0188 6.25 14.5 6.25H11.75ZM11.75 6.25V11.75M6.25 11.75H11.75M6.25 11.75V14.5C6.25 16.0188 5.01878 17.25 3.5 17.25C1.98122 17.25 0.75 16.0188 0.75 14.5C0.75 12.9812 1.98122 11.75 3.5 11.75H6.25ZM11.75 11.75V14.5C11.75 16.0188 12.9812 17.25 14.5 17.25C16.0188 17.25 17.25 16.0188 17.25 14.5C17.25 12.9812 16.0188 11.75 14.5 11.75H11.75Z" stroke="white" stroke-linecap="square"/>
</svg>
