<svg width="24" height="24" viewBox="0 0 24 24" fill="none" xmlns="http://www.w3.org/2000/svg">
<path d="M19.5 15.6944V3.5C19.5 2.94772 19.0523 2.5 18.5 2.5H5.5C4.94772 2.5 4.5 2.94772 4.5 3.5V20.5C4.5 21.0507 4.94515 21.4974 5.49526 21.5M19.5 15.6944V16.0714C19.5 16.8545 19.2433 17.6164 18.7685 18.2429C17.2143 20.2933 14.7751 21.5 12.1847 21.5H5.5H5.49526M19.5 15.6944C19.5 18.3333 15.7662 18.3333 14.1659 17.2778L13.0233 18.4083C11.0263 20.3843 8.31905 21.496 5.49526 21.5M5.49526 21.5C5.49012 21.5 5.48497 21.5 5.47983 21.5" stroke="white" stroke-linejoin="round"/>
</svg>
