<svg width="24" height="24" viewBox="0 0 24 24" fill="none" xmlns="http://www.w3.org/2000/svg">
<path d="M19.25 12.75C19.25 13.9926 18.2426 15 17 15C15.7574 15 14.75 13.9926 14.75 12.75C14.75 11.5074 15.7574 10.5 17 10.5C18.2426 10.5 19.25 11.5074 19.25 12.75Z" stroke="white" stroke-linecap="round" stroke-linejoin="round"/>
<path d="M17.0006 17C14.9962 17 13.4962 18.3307 12.9517 20.1788C12.7858 20.7417 13.2554 21.25 13.8422 21.25H20.1591C20.7458 21.25 21.2154 20.7417 21.0496 20.1788C20.505 18.3307 19.0051 17 17.0006 17Z" stroke="white" stroke-linecap="round" stroke-linejoin="round"/>
<path d="M9.25 5C9.25 6.24264 8.24264 7.25 7 7.25C5.75736 7.25 4.75 6.24264 4.75 5C4.75 3.75736 5.75736 2.75 7 2.75C8.24264 2.75 9.25 3.75736 9.25 5Z" stroke="white" stroke-linecap="round" stroke-linejoin="round"/>
<path d="M9.50064 10.0892C8.81878 9.56026 7.96853 9.25 7.00064 9.25C4.99617 9.25 3.49623 10.5807 2.95169 12.4288C2.78584 12.9917 3.25544 13.5 3.84222 13.5H8.00064" stroke="white" stroke-linecap="round" stroke-linejoin="round"/>
<path d="M8.25 21.25L15.75 2.75" stroke="white" stroke-linecap="round" stroke-linejoin="round"/>
</svg>
