<svg viewBox="0 0 201 47" fill="none" xmlns="http://www.w3.org/2000/svg">
<g filter="url(#filter0_di_701_9030)">
<rect x="4" y="2" width="193" height="39" rx="4" fill="url(#paint0_linear_701_9030)"/>
<rect x="4.25" y="2.25" width="192.5" height="38.5" rx="3.75" stroke="#6B46FD" stroke-width="0.5"/>
<path d="M51.0417 16.5C50.8633 16.5 50.6985 16.595 50.6091 16.7493L48.0017 21.2494C47.8086 21.5827 48.0491 22 48.4343 22H50.9145L49.7683 25.8209C49.6229 26.3055 50.2069 26.6748 50.5823 26.3356L57.186 20.371C57.5257 20.0642 57.3086 19.5 56.8508 19.5H54.155L55.2933 17.2236C55.4595 16.8912 55.2178 16.5 54.8461 16.5H51.0417Z" fill="white"/>
<path d="M73.2333 17.2727H74.8143V22.9744C74.8143 23.5994 74.6665 24.1491 74.3711 24.6236C74.0785 25.098 73.6665 25.4687 73.1353 25.7358C72.604 26 71.9833 26.1321 71.2731 26.1321C70.56 26.1321 69.9379 26 69.4066 25.7358C68.8754 25.4687 68.4634 25.098 68.1708 24.6236C67.8782 24.1491 67.7319 23.5994 67.7319 22.9744V17.2727H69.3129V22.8423C69.3129 23.206 69.3924 23.5298 69.5515 23.8139C69.7134 24.098 69.9407 24.321 70.2333 24.483C70.5259 24.642 70.8725 24.7216 71.2731 24.7216C71.6737 24.7216 72.0202 24.642 72.3129 24.483C72.6083 24.321 72.8356 24.098 72.9947 23.8139C73.1538 23.5298 73.2333 23.206 73.2333 22.8423V17.2727ZM76.4645 28.4545V19.4545H77.9815V20.5369H78.071C78.1506 20.3778 78.2628 20.2088 78.4077 20.0298C78.5526 19.848 78.7486 19.6932 78.9957 19.5653C79.2429 19.4347 79.5582 19.3693 79.9418 19.3693C80.4474 19.3693 80.9034 19.4986 81.3097 19.7571C81.7188 20.0128 82.0426 20.392 82.2812 20.8949C82.5227 21.3949 82.6435 22.0085 82.6435 22.7358C82.6435 23.4545 82.5256 24.0653 82.2898 24.5682C82.054 25.071 81.733 25.4545 81.3267 25.7188C80.9205 25.983 80.4602 26.1151 79.946 26.1151C79.571 26.1151 79.2599 26.0526 79.0128 25.9276C78.7656 25.8026 78.5668 25.652 78.4162 25.4759C78.2685 25.2969 78.1534 25.1278 78.071 24.9688H78.0071V28.4545H76.4645ZM77.9773 22.7273C77.9773 23.1506 78.0369 23.5213 78.1562 23.8395C78.2784 24.1577 78.4531 24.4062 78.6804 24.5852C78.9105 24.7614 79.1889 24.8494 79.5156 24.8494C79.8565 24.8494 80.142 24.7585 80.3722 24.5767C80.6023 24.392 80.7756 24.1406 80.892 23.8224C81.0114 23.5014 81.071 23.1364 81.071 22.7273C81.071 22.321 81.0128 21.9602 80.8963 21.6449C80.7798 21.3295 80.6065 21.0824 80.3764 20.9034C80.1463 20.7244 79.8594 20.6349 79.5156 20.6349C79.1861 20.6349 78.9062 20.7216 78.6761 20.8949C78.446 21.0682 78.2713 21.3111 78.152 21.6236C78.0355 21.9361 77.9773 22.304 77.9773 22.7273ZM86.8111 28.5909C86.2571 28.5909 85.7813 28.5156 85.3835 28.3651C84.9858 28.2173 84.6662 28.0185 84.4247 27.7685C84.1832 27.5185 84.0156 27.2415 83.9219 26.9375L85.3111 26.6009C85.3736 26.7287 85.4645 26.8551 85.5838 26.9801C85.7031 27.108 85.8636 27.2131 86.0653 27.2955C86.2699 27.3807 86.527 27.4233 86.8366 27.4233C87.2741 27.4233 87.6364 27.3168 87.9233 27.1037C88.2102 26.8935 88.3537 26.5469 88.3537 26.0639V24.8239H88.277C88.1974 24.983 88.081 25.1463 87.9276 25.3139C87.777 25.4815 87.5767 25.6222 87.3267 25.7358C87.0795 25.8494 86.7685 25.9062 86.3935 25.9062C85.8906 25.9062 85.4347 25.7884 85.0256 25.5526C84.6193 25.3139 84.2955 24.9588 84.054 24.4872C83.8153 24.0128 83.696 23.419 83.696 22.706C83.696 21.9872 83.8153 21.3807 84.054 20.8864C84.2955 20.3892 84.6207 20.0128 85.0298 19.7571C85.4389 19.4986 85.8949 19.3693 86.3977 19.3693C86.7813 19.3693 87.0966 19.4347 87.3438 19.5653C87.5938 19.6932 87.7926 19.848 87.9403 20.0298C88.0881 20.2088 88.2003 20.3778 88.277 20.5369H88.3622V19.4545H89.8835V26.1065C89.8835 26.6662 89.75 27.1293 89.483 27.4957C89.2159 27.8622 88.8509 28.1364 88.3878 28.3182C87.9247 28.5 87.3991 28.5909 86.8111 28.5909ZM86.8239 24.696C87.1506 24.696 87.429 24.6165 87.6591 24.4574C87.8892 24.2983 88.0639 24.0696 88.1832 23.7713C88.3026 23.473 88.3622 23.1151 88.3622 22.6974C88.3622 22.2855 88.3026 21.9247 88.1832 21.6151C88.0668 21.3054 87.8935 21.0653 87.6634 20.8949C87.4361 20.7216 87.1563 20.6349 86.8239 20.6349C86.4801 20.6349 86.1932 20.7244 85.9631 20.9034C85.733 21.0824 85.5597 21.3281 85.4432 21.6406C85.3267 21.9503 85.2685 22.3026 85.2685 22.6974C85.2685 23.098 85.3267 23.4489 85.4432 23.75C85.5625 24.0483 85.7372 24.2812 85.9673 24.4489C86.2003 24.6136 86.4858 24.696 86.8239 24.696ZM91.4645 26V19.4545H92.9602V20.5455H93.0284C93.1477 20.1676 93.3523 19.8764 93.642 19.6719C93.9347 19.4645 94.2685 19.3608 94.6435 19.3608C94.7287 19.3608 94.8239 19.3651 94.929 19.3736C95.0369 19.3793 95.1264 19.3892 95.1974 19.4034V20.8224C95.1321 20.7997 95.0284 20.7798 94.8864 20.7628C94.7472 20.7429 94.6122 20.733 94.4815 20.733C94.2003 20.733 93.9474 20.794 93.723 20.9162C93.5014 21.0355 93.3267 21.2017 93.1989 21.4148C93.071 21.6278 93.0071 21.8736 93.0071 22.152V26H91.4645ZM97.9886 26.1321C97.5739 26.1321 97.2003 26.0582 96.8679 25.9105C96.5384 25.7599 96.277 25.5384 96.0838 25.2457C95.8935 24.9531 95.7983 24.5923 95.7983 24.1634C95.7983 23.794 95.8665 23.4886 96.0028 23.2472C96.1392 23.0057 96.3253 22.8125 96.5611 22.6676C96.7969 22.5227 97.0625 22.4134 97.358 22.3395C97.6563 22.2628 97.9645 22.2074 98.2827 22.1733C98.6662 22.1335 98.9773 22.098 99.2159 22.0668C99.4545 22.0327 99.6278 21.9815 99.7358 21.9134C99.8466 21.8423 99.902 21.733 99.902 21.5852V21.5597C99.902 21.2386 99.8068 20.9901 99.6165 20.8139C99.4261 20.6378 99.152 20.5497 98.794 20.5497C98.4162 20.5497 98.1165 20.6321 97.8949 20.7969C97.6761 20.9616 97.5284 21.1562 97.4517 21.3807L96.0114 21.1761C96.125 20.7784 96.3125 20.446 96.5739 20.179C96.8352 19.9091 97.1548 19.7074 97.5327 19.5739C97.9105 19.4375 98.3281 19.3693 98.7855 19.3693C99.1009 19.3693 99.4148 19.4062 99.7273 19.4801C100.04 19.554 100.325 19.6761 100.584 19.8466C100.842 20.0142 101.05 20.2429 101.206 20.5327C101.365 20.8224 101.445 21.1847 101.445 21.6193V26H99.9616V25.1009H99.9105C99.8168 25.2827 99.6847 25.4531 99.5142 25.6122C99.3466 25.7685 99.1349 25.8949 98.8793 25.9915C98.6264 26.0852 98.3295 26.1321 97.9886 26.1321ZM98.3892 24.9986C98.6989 24.9986 98.9673 24.9375 99.1946 24.8153C99.4219 24.6903 99.5966 24.5256 99.7188 24.321C99.8438 24.1165 99.9062 23.8935 99.9062 23.652V22.8807C99.858 22.9205 99.7756 22.9574 99.6591 22.9915C99.5455 23.0256 99.4176 23.0554 99.2756 23.081C99.1335 23.1065 98.9929 23.1293 98.8537 23.1491C98.7145 23.169 98.5938 23.1861 98.4915 23.2003C98.2614 23.2315 98.0554 23.2827 97.8736 23.3537C97.6918 23.4247 97.5483 23.5241 97.4432 23.652C97.3381 23.777 97.2855 23.9389 97.2855 24.1378C97.2855 24.4219 97.3892 24.6364 97.5966 24.7812C97.804 24.9261 98.0682 24.9986 98.3892 24.9986ZM105.425 26.1151C104.911 26.1151 104.45 25.983 104.044 25.7188C103.638 25.4545 103.317 25.071 103.081 24.5682C102.845 24.0653 102.727 23.4545 102.727 22.7358C102.727 22.0085 102.847 21.3949 103.085 20.8949C103.327 20.392 103.652 20.0128 104.061 19.7571C104.47 19.4986 104.926 19.3693 105.429 19.3693C105.813 19.3693 106.128 19.4347 106.375 19.5653C106.622 19.6932 106.818 19.848 106.963 20.0298C107.108 20.2088 107.22 20.3778 107.3 20.5369H107.364V17.2727H108.911V26H107.393V24.9688H107.3C107.22 25.1278 107.105 25.2969 106.955 25.4759C106.804 25.652 106.605 25.8026 106.358 25.9276C106.111 26.0526 105.8 26.1151 105.425 26.1151ZM105.855 24.8494C106.182 24.8494 106.46 24.7614 106.69 24.5852C106.92 24.4062 107.095 24.1577 107.214 23.8395C107.334 23.5213 107.393 23.1506 107.393 22.7273C107.393 22.304 107.334 21.9361 107.214 21.6236C107.098 21.3111 106.925 21.0682 106.695 20.8949C106.467 20.7216 106.188 20.6349 105.855 20.6349C105.511 20.6349 105.224 20.7244 104.994 20.9034C104.764 21.0824 104.591 21.3295 104.474 21.6449C104.358 21.9602 104.3 22.321 104.3 22.7273C104.3 23.1364 104.358 23.5014 104.474 23.8224C104.594 24.1406 104.768 24.392 104.999 24.5767C105.232 24.7585 105.517 24.8494 105.855 24.8494ZM113.452 26.1278C112.796 26.1278 112.229 25.9915 111.752 25.7188C111.277 25.4432 110.912 25.054 110.657 24.5511C110.401 24.0455 110.273 23.4503 110.273 22.7656C110.273 22.0923 110.401 21.5014 110.657 20.9929C110.915 20.4815 111.276 20.0838 111.739 19.7997C112.202 19.5128 112.746 19.3693 113.371 19.3693C113.775 19.3693 114.155 19.4347 114.513 19.5653C114.874 19.6932 115.192 19.892 115.468 20.1619C115.746 20.4318 115.965 20.7756 116.124 21.1932C116.283 21.608 116.363 22.1023 116.363 22.6761V23.1491H110.998V22.1094H114.884C114.881 21.8139 114.817 21.5511 114.692 21.321C114.567 21.0881 114.392 20.9048 114.168 20.7713C113.946 20.6378 113.688 20.571 113.392 20.571C113.077 20.571 112.8 20.6477 112.561 20.8011C112.323 20.9517 112.137 21.1506 112.003 21.3977C111.873 21.642 111.806 21.9105 111.803 22.2031V23.1108C111.803 23.4915 111.873 23.8182 112.012 24.0909C112.151 24.3608 112.346 24.5682 112.596 24.7131C112.846 24.8551 113.138 24.9261 113.473 24.9261C113.698 24.9261 113.901 24.8949 114.083 24.8324C114.265 24.767 114.422 24.6719 114.556 24.5469C114.689 24.4219 114.79 24.267 114.858 24.0824L116.299 24.2443C116.208 24.625 116.034 24.9574 115.779 25.2415C115.526 25.5227 115.202 25.7415 114.807 25.8977C114.412 26.0511 113.961 26.1278 113.452 26.1278ZM123.913 19.4545V20.6477H120.15V19.4545H123.913ZM121.079 17.8864H122.621V24.0312C122.621 24.2386 122.653 24.3977 122.715 24.5085C122.781 24.6165 122.866 24.6903 122.971 24.7301C123.076 24.7699 123.192 24.7898 123.32 24.7898C123.417 24.7898 123.505 24.7827 123.585 24.7685C123.667 24.7543 123.729 24.7415 123.772 24.7301L124.032 25.9361C123.95 25.9645 123.832 25.9957 123.678 26.0298C123.528 26.0639 123.343 26.0838 123.124 26.0895C122.738 26.1009 122.39 26.0426 122.08 25.9148C121.771 25.7841 121.525 25.5824 121.343 25.3097C121.164 25.0369 121.076 24.696 121.079 24.2869V17.8864ZM127.988 26.1278C127.348 26.1278 126.794 25.9872 126.326 25.706C125.857 25.4247 125.493 25.0312 125.235 24.5256C124.979 24.0199 124.851 23.429 124.851 22.7528C124.851 22.0767 124.979 21.4844 125.235 20.9759C125.493 20.4673 125.857 20.0724 126.326 19.7912C126.794 19.5099 127.348 19.3693 127.988 19.3693C128.627 19.3693 129.181 19.5099 129.65 19.7912C130.118 20.0724 130.48 20.4673 130.736 20.9759C130.995 21.4844 131.124 22.0767 131.124 22.7528C131.124 23.429 130.995 24.0199 130.736 24.5256C130.48 25.0312 130.118 25.4247 129.65 25.706C129.181 25.9872 128.627 26.1278 127.988 26.1278ZM127.996 24.892C128.343 24.892 128.632 24.7969 128.865 24.6065C129.098 24.4134 129.272 24.1548 129.385 23.831C129.502 23.5071 129.56 23.1463 129.56 22.7486C129.56 22.348 129.502 21.9858 129.385 21.6619C129.272 21.3352 129.098 21.0753 128.865 20.8821C128.632 20.6889 128.343 20.5923 127.996 20.5923C127.641 20.5923 127.346 20.6889 127.11 20.8821C126.877 21.0753 126.702 21.3352 126.586 21.6619C126.472 21.9858 126.415 22.348 126.415 22.7486C126.415 23.1463 126.472 23.5071 126.586 23.831C126.702 24.1548 126.877 24.4134 127.11 24.6065C127.346 24.7969 127.641 24.892 127.996 24.892ZM135.478 26V17.2727H138.751C139.421 17.2727 139.984 17.3977 140.438 17.6477C140.896 17.8977 141.241 18.2415 141.474 18.679C141.71 19.1136 141.827 19.608 141.827 20.1619C141.827 20.7216 141.71 21.2187 141.474 21.6534C141.238 22.0881 140.89 22.4304 140.43 22.6804C139.969 22.9276 139.403 23.0511 138.729 23.0511H136.56V21.7514H138.516C138.908 21.7514 139.229 21.6832 139.479 21.5469C139.729 21.4105 139.914 21.223 140.033 20.9844C140.156 20.7457 140.217 20.4716 140.217 20.1619C140.217 19.8523 140.156 19.5795 140.033 19.3438C139.914 19.108 139.728 18.9247 139.475 18.794C139.225 18.6605 138.903 18.5938 138.508 18.5938H137.059V26H135.478ZM143.132 26V19.4545H144.628V20.5455H144.696C144.816 20.1676 145.02 19.8764 145.31 19.6719C145.603 19.4645 145.936 19.3608 146.311 19.3608C146.397 19.3608 146.492 19.3651 146.597 19.3736C146.705 19.3793 146.794 19.3892 146.865 19.4034V20.8224C146.8 20.7997 146.696 20.7798 146.554 20.7628C146.415 20.7429 146.28 20.733 146.15 20.733C145.868 20.733 145.615 20.794 145.391 20.9162C145.169 21.0355 144.995 21.2017 144.867 21.4148C144.739 21.6278 144.675 21.8736 144.675 22.152V26H143.132ZM150.476 26.1278C149.837 26.1278 149.283 25.9872 148.814 25.706C148.345 25.4247 147.982 25.0312 147.723 24.5256C147.467 24.0199 147.339 23.429 147.339 22.7528C147.339 22.0767 147.467 21.4844 147.723 20.9759C147.982 20.4673 148.345 20.0724 148.814 19.7912C149.283 19.5099 149.837 19.3693 150.476 19.3693C151.115 19.3693 151.669 19.5099 152.138 19.7912C152.607 20.0724 152.969 20.4673 153.224 20.9759C153.483 21.4844 153.612 22.0767 153.612 22.7528C153.612 23.429 153.483 24.0199 153.224 24.5256C152.969 25.0312 152.607 25.4247 152.138 25.706C151.669 25.9872 151.115 26.1278 150.476 26.1278ZM150.484 24.892C150.831 24.892 151.121 24.7969 151.354 24.6065C151.587 24.4134 151.76 24.1548 151.874 23.831C151.99 23.5071 152.048 23.1463 152.048 22.7486C152.048 22.348 151.99 21.9858 151.874 21.6619C151.76 21.3352 151.587 21.0753 151.354 20.8821C151.121 20.6889 150.831 20.5923 150.484 20.5923C150.129 20.5923 149.834 20.6889 149.598 20.8821C149.365 21.0753 149.19 21.3352 149.074 21.6619C148.96 21.9858 148.903 22.348 148.903 22.7486C148.903 23.1463 148.96 23.5071 149.074 23.831C149.19 24.1548 149.365 24.4134 149.598 24.6065C149.834 24.7969 150.129 24.892 150.484 24.892Z" fill="white"/>
</g>
<defs>
<filter id="filter0_di_701_9030" x="0" y="0" width="201" height="47" filterUnits="userSpaceOnUse" color-interpolation-filters="sRGB">
<feFlood flood-opacity="0" result="BackgroundImageFix"/>
<feColorMatrix in="SourceAlpha" type="matrix" values="0 0 0 0 0 0 0 0 0 0 0 0 0 0 0 0 0 0 127 0" result="hardAlpha"/>
<feOffset dy="2"/>
<feGaussianBlur stdDeviation="2"/>
<feComposite in2="hardAlpha" operator="out"/>
<feColorMatrix type="matrix" values="0 0 0 0 0 0 0 0 0 0 0 0 0 0 0 0 0 0 0.15 0"/>
<feBlend mode="normal" in2="BackgroundImageFix" result="effect1_dropShadow_701_9030"/>
<feBlend mode="normal" in="SourceGraphic" in2="effect1_dropShadow_701_9030" result="shape"/>
<feColorMatrix in="SourceAlpha" type="matrix" values="0 0 0 0 0 0 0 0 0 0 0 0 0 0 0 0 0 0 127 0" result="hardAlpha"/>
<feOffset dy="2"/>
<feGaussianBlur stdDeviation="2"/>
<feComposite in2="hardAlpha" operator="arithmetic" k2="-1" k3="1"/>
<feColorMatrix type="matrix" values="0 0 0 0 0.654902 0 0 0 0 0.545098 0 0 0 0 0.980392 0 0 0 0.8 0"/>
<feBlend mode="normal" in2="shape" result="effect2_innerShadow_701_9030"/>
</filter>
<linearGradient id="paint0_linear_701_9030" x1="100.5" y1="2" x2="100.5" y2="41" gradientUnits="userSpaceOnUse">
<stop stop-color="#8060FF"/>
<stop offset="1" stop-color="#704CFF"/>
</linearGradient>
</defs>
</svg>
