<svg viewBox="0 0 12 12" fill="none" xmlns="http://www.w3.org/2000/svg">
<path d="M5.16505 1.50049C4.88889 1.50049 4.66504 1.72434 4.66504 2.00049V10.0005C4.66504 10.2766 4.88889 10.5005 5.16505 10.5005H6.83005C7.1062 10.5005 7.33005 10.2766 7.33005 10.0005V2.00049C7.33005 1.72434 7.1062 1.50049 6.83005 1.50049H5.16505Z" fill="currentColor"/>
<path d="M2 6.5005C1.72386 6.5005 1.5 6.72435 1.5 7.0005V10.0005C1.5 10.2767 1.72385 10.5005 2 10.5005H3.665C3.94114 10.5005 4.165 10.2767 4.165 10.0005V7.0005C4.165 6.72435 3.94114 6.5005 3.665 6.5005H2Z" fill="currentColor"/>
<path d="M7.83008 4.50049C7.83008 4.22434 8.05393 4.00049 8.33008 4.00049H9.99508C10.2712 4.00049 10.4951 4.22434 10.4951 4.50049V10.0005C10.4951 10.2766 10.2712 10.5005 9.99508 10.5005H8.33008C8.05393 10.5005 7.83008 10.2766 7.83008 10.0005V4.50049Z" fill="currentColor"/>
</svg>
