<svg width="13" height="12" viewBox="0 0 13 12" fill="none" xmlns="http://www.w3.org/2000/svg">
<path d="M6.70543 1.5C6.70543 1.22386 6.48158 1 6.20543 1C5.92928 1 5.70543 1.22386 5.70543 1.5V2H5.32348C5.16823 2 5.01511 2.03615 4.87626 2.10558L4.0874 2.5H1.70544C1.4293 2.5 1.20544 2.72386 1.20544 3C1.20544 3.27614 1.4293 3.5 1.70544 3.5H2.26172L1.11121 6.95155C0.964577 7.39145 1.1368 7.92915 1.62067 8.14285C2.52149 8.5407 3.38938 8.5407 4.2902 8.14285C4.77407 7.92915 4.9463 7.39145 4.79967 6.95155L3.64915 3.5H4.0874C4.24265 3.5 4.39576 3.46386 4.53462 3.39442L5.32348 3H5.70543V9.5H3.70544C3.4293 9.5 3.20544 9.72385 3.20544 10C3.20544 10.2761 3.4293 10.5 3.70544 10.5H8.70543C8.98158 10.5 9.20543 10.2761 9.20543 10C9.20543 9.72385 8.98158 9.5 8.70543 9.5H6.70543V3H7.08743L7.87628 3.39442C8.01513 3.46386 8.16823 3.5 8.32348 3.5H8.76173L7.61123 6.95155C7.46458 7.39145 7.63683 7.92915 8.12068 8.14285C9.02148 8.5407 9.88938 8.5407 10.7902 8.14285C11.2741 7.92915 11.4463 7.39145 11.2997 6.95155L10.1491 3.5H10.7054C10.9816 3.5 11.2054 3.27614 11.2054 3C11.2054 2.72386 10.9816 2.5 10.7054 2.5H8.32348L7.53463 2.10558C7.39578 2.03615 7.24263 2 7.08743 2H6.70543V1.5Z" fill="white"/>
</svg>
