<svg viewBox="0 0 12 12" fill="none" xmlns="http://www.w3.org/2000/svg">
<path fill-rule="evenodd" clip-rule="evenodd" d="M7.90675 1.5C7.66005 1.66063 7.4997 1.93891 7.5 2.25097L7.5039 2.33545C7.54355 2.75209 7.8701 3.09104 8.29345 3.13916L8.376 3.15088C8.5557 3.1829 8.6554 3.24367 8.71145 3.29834C8.77165 3.35723 8.8394 3.46562 8.8589 3.68506L8.8706 3.77002C8.9487 4.1894 9.31635 4.50043 9.751 4.5L9.8369 4.4956C10.1138 4.46879 10.3549 4.31488 10.5 4.09131V9.75C10.5 10.1642 10.1642 10.5 9.75 10.5H2.25C1.83579 10.5 1.5 10.1642 1.5 9.75V2.25C1.5 1.83579 1.83579 1.5 2.25 1.5H7.90675ZM3.75 7.5C3.61193 7.5 3.5 7.61195 3.5 7.75C3.5 7.88805 3.61193 8 3.75 8H6.75C6.88805 8 7 7.88805 7 7.75C7 7.61195 6.88805 7.5 6.75 7.5H3.75ZM3.75 5.75C3.61193 5.75 3.5 5.86195 3.5 6C3.5 6.13805 3.61193 6.25 3.75 6.25H5.25C5.38805 6.25 5.5 6.13805 5.5 6C5.5 5.86195 5.38805 5.75 5.25 5.75H3.75ZM6.25 5.75C6.11195 5.75 6 5.86195 6 6C6 6.13805 6.11195 6.25 6.25 6.25H8.25C8.38805 6.25 8.5 6.13805 8.5 6C8.5 5.86195 8.38805 5.75 8.25 5.75H6.25ZM3.75 4C3.61193 4 3.5 4.11193 3.5 4.25C3.5 4.38807 3.61193 4.5 3.75 4.5H6.25C6.38805 4.5 6.5 4.38807 6.5 4.25C6.5 4.11193 6.38805 4 6.25 4H3.75Z" fill="currentColor"/>
<path d="M9.99235 0.71645C9.9784 0.593255 9.87425 0.500125 9.75025 0.5C9.62625 0.499874 9.5219 0.592785 9.5077 0.715955C9.419 1.48497 8.98495 1.91901 8.21595 2.00771C8.0928 2.02191 7.99985 2.12627 8 2.25025C8.00015 2.37424 8.09325 2.4784 8.21645 2.49235C8.97455 2.57823 9.4387 3.00809 9.50705 3.77768C9.51825 3.90363 9.62385 4.00014 9.75025 4C9.8767 3.99986 9.9821 3.90311 9.993 3.77713C10.0587 3.01842 10.5184 2.55867 11.2772 2.493C11.4031 2.48209 11.4999 2.37672 11.5 2.25028C11.5002 2.12383 11.4037 2.01824 11.2777 2.00706C10.5081 1.93869 10.0782 1.47456 9.99235 0.71645Z" fill="currentColor"/>
</svg>
