<svg viewBox="0 0 8 9" fill="none" xmlns="http://www.w3.org/2000/svg">
<path d="M4.33333 1.5H6.14397C6.2281 1.49999 6.31003 1.49998 6.3794 1.50565C6.4556 1.51188 6.54553 1.52656 6.636 1.57266C6.76143 1.63658 6.86343 1.73857 6.92733 1.86401C6.97343 1.95448 6.98813 2.04439 6.99437 2.12059C7.00003 2.18996 7 2.27191 7 2.35602V6.644C7 6.72813 7.00003 6.81003 6.99437 6.8794C6.98813 6.9556 6.97343 7.04553 6.92733 7.136C6.86343 7.26143 6.76143 7.36343 6.636 7.42733C6.54553 7.47343 6.4556 7.48813 6.3794 7.49437C6.31003 7.50003 6.2281 7.5 6.144 7.5H1.85599C1.77188 7.5 1.68996 7.50003 1.62059 7.49437C1.54439 7.48813 1.45448 7.47343 1.36401 7.42733C1.23857 7.36343 1.13658 7.26143 1.07266 7.136C1.02656 7.04553 1.01188 6.9556 1.00565 6.8794C0.999981 6.81003 0.999991 6.7281 1 6.64397V4.16667H3.66667V7.5H4.33333V5.5H7V4.83333H4.33333V1.5Z" fill="currentColor"/>
<path d="M1 3.5H3.66667V1.5H1.85604C1.77191 1.49999 1.68998 1.49998 1.62059 1.50565C1.54439 1.51188 1.45448 1.52656 1.36401 1.57266C1.23857 1.63658 1.13658 1.73857 1.07266 1.86401C1.02656 1.95448 1.01188 2.04439 1.00565 2.12059C0.999981 2.18998 0.999991 2.27191 1 2.35603V3.5Z" fill="currentColor"/>
</svg>
