<svg viewBox="0 0 12 12" fill="none" xmlns="http://www.w3.org/2000/svg">
<path d="M7.93935 1.5L5.71965 3.71967C5.579 3.86032 5.5 4.05109 5.5 4.25V5.75C5.5 6.1642 5.8358 6.5 6.25 6.5H7.75C7.9489 6.5 8.1397 6.421 8.28035 6.28035L10.5 4.06066V9.45965C10.5 9.59145 10.5 9.7051 10.4923 9.79875C10.4843 9.8976 10.4664 9.9959 10.4183 10.0905C10.3463 10.2316 10.2316 10.3463 10.0905 10.4183C9.9959 10.4664 9.8976 10.4843 9.79875 10.4923C9.7051 10.5 9.59145 10.5 9.45965 10.5H2.54036C2.40858 10.5 2.29489 10.5 2.20125 10.4923C2.10241 10.4843 2.00411 10.4664 1.90951 10.4183C1.76839 10.3463 1.65365 10.2316 1.58175 10.0905C1.53355 9.9959 1.51572 9.8976 1.50765 9.79875C1.5 9.7051 1.5 9.5914 1.5 9.45965V2.54036C1.5 2.40858 1.5 2.29489 1.50765 2.20125C1.51572 2.10241 1.53355 2.00411 1.58175 1.90951C1.65365 1.76839 1.76839 1.65365 1.90951 1.58175C2.00411 1.53355 2.10241 1.51572 2.20125 1.50765C2.29489 1.5 2.40858 1.5 2.54036 1.5H7.93935Z" fill="currentColor"/>
<path fill-rule="evenodd" clip-rule="evenodd" d="M9.5518 1.65525C9.45415 1.55762 9.29585 1.55762 9.1982 1.65525L6.5 4.35348V5.4999H7.64645L10.3447 2.8017C10.4423 2.70407 10.4423 2.54578 10.3447 2.44815L9.5518 1.65525ZM8.84465 1.3017C9.13755 1.00881 9.61245 1.00881 9.90535 1.3017L10.6982 2.09459C10.9911 2.38749 10.9911 2.86236 10.6982 3.15525L7.9268 5.9267C7.8799 5.9736 7.8163 5.9999 7.75 5.9999H6.25C6.11195 5.9999 6 5.888 6 5.7499V4.24992C6 4.18362 6.02635 4.12003 6.0732 4.07315L8.84465 1.3017Z" fill="currentColor"/>
</svg>
