<svg viewBox="0 0 13 12" fill="none" xmlns="http://www.w3.org/2000/svg">
<path d="M5.76074 1.3063L5.14227 1.10015C4.85929 1.00582 4.54898 1.04274 4.29604 1.20083L2.73074 2.17914C2.43836 2.36188 2.26074 2.68235 2.26074 3.02714V3.75002L1.66074 4.20002C1.40894 4.38887 1.26074 4.68526 1.26074 5V6.5C1.26074 6.8148 1.40894 7.11115 1.66074 7.3L2.26074 7.75V8.9729C2.26074 9.3177 2.43836 9.63815 2.73074 9.8209L4.29604 10.7992C4.54898 10.9573 4.85929 10.9942 5.14227 10.8999L5.76074 10.6937V8.7071L5.01976 7.96615C4.93715 7.9882 4.85032 8 4.76074 8C4.20846 8 3.76074 7.5523 3.76074 7C3.76074 6.4477 4.20846 6 4.76074 6C5.31304 6 5.76074 6.4477 5.76074 7C5.76074 7.0896 5.74894 7.1764 5.72689 7.259L6.46784 8C6.65539 8.18755 6.76074 8.4419 6.76074 8.7071V10.6937L7.37919 10.8999C7.66219 10.9942 7.97249 10.9573 8.22544 10.7992L9.79074 9.8209C10.0831 9.63815 10.2607 9.3177 10.2607 8.9729V7.75L10.8607 7.3C11.1125 7.11115 11.2607 6.8148 11.2607 6.5V5C11.2607 4.68526 11.1125 4.38887 10.8607 4.20002L10.2607 3.75002V3.02714C10.2607 2.68235 10.0831 2.36188 9.79074 2.17914L8.22544 1.20083C7.97249 1.04274 7.66219 1.00582 7.37919 1.10015L6.76074 1.3063V3.29289L7.50174 4.03387C7.58434 4.01178 7.67114 4 7.76074 4C8.31304 4 8.76074 4.44771 8.76074 5C8.76074 5.5523 8.31304 6 7.76074 6C7.20844 6 6.76074 5.5523 6.76074 5C6.76074 4.91042 6.77254 4.82359 6.79459 4.74098L6.05364 4C5.86609 3.81246 5.76074 3.55811 5.76074 3.29289V1.3063Z" fill="currentColor"/>
</svg>
