<svg viewBox="0 0 12 12" fill="none" xmlns="http://www.w3.org/2000/svg">
<path d="M3.5 1.25H2.5C2.08579 1.25 1.75 1.58579 1.75 2V10C1.75 10.4142 2.08579 10.75 2.5 10.75H3.5V1.25Z" fill="currentColor"/>
<path fill-rule="evenodd" clip-rule="evenodd" d="M4 10.75H9.5C9.9142 10.75 10.25 10.4142 10.25 10V2C10.25 1.58579 9.9142 1.25 9.5 1.25H4V10.75ZM6.25 3.5C6.11195 3.5 6 3.61193 6 3.75C6 3.88807 6.11195 4 6.25 4H8C8.13805 4 8.25 3.88807 8.25 3.75C8.25 3.61193 8.13805 3.5 8 3.5H6.25ZM6.25 5.5C6.11195 5.5 6 5.61195 6 5.75C6 5.88805 6.11195 6 6.25 6H8C8.13805 6 8.25 5.88805 8.25 5.75C8.25 5.61195 8.13805 5.5 8 5.5H6.25Z" fill="currentColor"/>
</svg>
