<svg viewBox="0 0 10 11" fill="none" xmlns="http://www.w3.org/2000/svg">
<path d="M2.93489 7.58334C3.4687 8.0983 4.20433 8.41668 5.00038 8.41668C6.61121 8.41668 7.91704 7.11084 7.91704 5.50001C7.91704 5.26989 8.10358 5.08334 8.33371 5.08334C8.56383 5.08334 8.75038 5.26989 8.75038 5.50001C8.75038 7.57109 7.07146 9.25001 5.00038 9.25001C4.05184 9.25001 3.1703 8.89739 2.50033 8.31493V8.83334C2.50033 9.06347 2.31378 9.25001 2.08366 9.25001C1.85354 9.25001 1.66699 9.06347 1.66699 8.83334V7.37501C1.66699 7.02984 1.94681 6.75001 2.29199 6.75001H3.64616C3.87628 6.75001 4.06283 6.93655 4.06283 7.16668C4.06283 7.3968 3.87628 7.58334 3.64616 7.58334H2.93489Z" fill="currentColor"/>
<path d="M2.08333 5.5C2.08333 5.73012 1.89678 5.91667 1.66667 5.91667C1.43655 5.91667 1.25 5.73012 1.25 5.5C1.25 3.42893 2.92893 1.75 5 1.75C5.95083 1.75 6.83433 2.10432 7.50487 2.68929V2.16667C7.50487 1.93655 7.69142 1.75 7.92154 1.75C8.15167 1.75 8.33821 1.93655 8.33821 2.16667V3.625C8.33821 3.97018 8.05837 4.25 7.71321 4.25H6.25487C6.02475 4.25 5.83821 4.06345 5.83821 3.83333C5.83821 3.60321 6.02475 3.41667 6.25487 3.41667H7.0655C6.53167 2.90172 5.79604 2.58333 5 2.58333C3.38917 2.58333 2.08333 3.88917 2.08333 5.5Z" fill="currentColor"/>
</svg>
