<svg viewBox="0 0 5 8" fill="none" xmlns="http://www.w3.org/2000/svg">
<path d="M4.79382 2.75C4.73947 2.74933 4.68737 2.73011 4.64773 2.69612L2.74351 0.953186L0.839293 2.69612C0.799457 2.726 0.748883 2.74128 0.69741 2.73897C0.645937 2.73666 0.597244 2.71693 0.560803 2.68362C0.524362 2.65031 0.502778 2.6058 0.50025 2.55875C0.497722 2.5117 0.51443 2.46547 0.547125 2.42906L2.59743 0.554935C2.6363 0.519743 2.6888 0.5 2.74351 0.5C2.79822 0.5 2.85072 0.519743 2.8896 0.554935L4.9399 2.42906C4.9784 2.46459 5 2.51258 5 2.56259C5 2.6126 4.9784 2.66059 4.9399 2.69612C4.90026 2.73011 4.84816 2.74933 4.79382 2.75Z" fill="currentColor"/>
<path d="M2.75 7.5C2.6955 7.49932 2.64324 7.48 2.60349 7.44583L0.547261 5.56178C0.514472 5.52518 0.497715 5.4787 0.500251 5.4314C0.502786 5.3841 0.524432 5.33936 0.560979 5.30587C0.597525 5.27239 0.646359 5.25255 0.697981 5.25023C0.749603 5.24791 0.800323 5.26326 0.840274 5.2933L2.75 7.04547L4.65973 5.2933C4.69968 5.26326 4.7504 5.24791 4.80202 5.25023C4.85364 5.25255 4.90247 5.27239 4.93902 5.30587C4.97557 5.33936 4.99721 5.3841 4.99975 5.4314C5.00228 5.4787 4.98553 5.52518 4.95274 5.56178L2.89651 7.44583C2.85675 7.48 2.8045 7.49932 2.75 7.5Z" fill="currentColor"/>
</svg>
