<svg width="25" height="25" viewBox="0 0 25 25" fill="none" xmlns="http://www.w3.org/2000/svg">
<path fill-rule="evenodd" clip-rule="evenodd" d="M12.3584 2.76053C6.83555 2.76053 2.3584 7.23768 2.3584 12.7605C2.3584 18.2833 6.83555 22.7605 12.3584 22.7605C17.8812 22.7605 22.3584 18.2833 22.3584 12.7605C22.3584 7.23768 17.8812 2.76053 12.3584 2.76053ZM16.5655 8.55342C16.956 8.94395 16.956 9.57711 16.5655 9.96764L9.56551 16.9676C9.17498 17.3581 8.54182 17.3581 8.15129 16.9676C7.76077 16.5771 7.76077 15.9439 8.15129 15.5534L15.1513 8.55342C15.5418 8.1629 16.175 8.1629 16.5655 8.55342ZM10.6084 9.76053C10.6084 10.4509 10.0488 11.0105 9.3584 11.0105C8.66804 11.0105 8.1084 10.4509 8.1084 9.76053C8.1084 9.07017 8.66804 8.51053 9.3584 8.51053C10.0488 8.51053 10.6084 9.07017 10.6084 9.76053ZM16.6084 15.7605C16.6084 16.4509 16.0488 17.0105 15.3584 17.0105C14.668 17.0105 14.1084 16.4509 14.1084 15.7605C14.1084 15.0701 14.668 14.5105 15.3584 14.5105C16.0488 14.5105 16.6084 15.0701 16.6084 15.7605Z" fill="black"/>
</svg>
